P3
# feep.ppm
4 4
15
0  1  1    1  0  1    0  0  0   15  1 14
 0  1  0    1 14  7    1  1  0    0  1  1
 0  1  1    1  0  1    0 14  6    1  1  0
14  1 14    1  0  0    0  0  0    0  0  0
